# xmcd
#
# Track frame offsets:
# 150
# 12255
# 27185
# 37137
# 46572
# 60602
# 74455
# 90760
# 108612
# 123510
# 136635
# 149415
# 164502
# 173447
# 193137
# 200355
# 210390
# 238727
# 247627
# 268042
#
# Disc length: 3899 seconds
#
# Revision: 0
# Processed by: cddbd v1.4PL0 Copyright (c) Steve Scherf et al.
# Submitted via: Audion 2.5.0 (http://www.panic.com/audion/)
#
DISCID=0e0f3914
DTITLE=U. of Rochester - Winter International MCMLXXXIX
DYEAR=1900
DGENRE=
TTITLE0=Teddy Bear
TTITLE1=One More Minute
TTITLE2=Soul To Soul
TTITLE3=12 1/2 Days of Christmas
TTITLE4=Heaven
TTITLE5=Perfect
TTITLE6=Natural Woman
TTITLE7=Woman of the 80's
TTITLE8=Jack Worships JAnie
TTITLE9=Never Love Another
TTITLE10=Mary Anne
TTITLE11=People Get Ready
TTITLE12=Sam, You Made The Pants
TTITLE13=You're No Good
TTITLE14=East of the Sun
TTITLE15=Ride The Chariot
TTITLE16=Veronica
TTITLE17=This Can't Be Love
TTITLE18=In Your Eyes
TTITLE19=Space Oddity/Major Tom
EXTD=
EXTT0=
EXTT1=
EXTT2=
EXTT3=
EXTT4=
EXTT5=
EXTT6=
EXTT7=
EXTT8=
EXTT9=
EXTT10=
EXTT11=
EXTT12=
EXTT13=
EXTT14=
EXTT15=
EXTT16=
EXTT17=
EXTT18=
EXTT19=
PLAYORDER=
